# xmcd
#
# Track frame offsets: 
#        150
#        16150
#        30882
#        45335
#        63307
#        77407
#        93207
#        107722
#        125130
#        137472
#        152602
#        165455
#
# Disc length: 2435 seconds
#
# Revision: 6
# Processed by: cddbd v1.5.2PL0 Copyright (c) Steve Scherf et al.
# Submitted via: ExactAudioCopyFreeDBPlugin 1.0
#
DISCID=7d09810c
DTITLE=Pam Tillis - Greatest Hits
DYEAR=1997
DGENRE=Country
TTITLE0=Land of the Living
TTITLE1=All the Good Ones Are Gone
TTITLE2=Don't Tell Me What to Do
TTITLE3=Maybe It Was Memphis
TTITLE4=Shake the Sugar Tree
TTITLE5=Let That Pony Run
TTITLE6=Cleopatra, Queen of Denial
TTITLE7=Spilled Perfume
TTITLE8=When You Walk in the Room
TTITLE9=In Between Dances
TTITLE10=Mi Vida Loca (My Crazy Life)
TTITLE11=The River and the Highway
EXTD=
EXTT0=
EXTT1=
EXTT2=
EXTT3=
EXTT4=
EXTT5=
EXTT6=
EXTT7=
EXTT8=
EXTT9=
EXTT10=
EXTT11=
PLAYORDER=
